<svg xmlns="http://www.w3.org/2000/svg" viewBox="0 0 282 64.82"><defs><style>.cls-1{fill:#bfbebd;}</style></defs><g id="Layer_2" data-name="Layer 2"><g id="Layer_1-2" data-name="Layer 1"><path class="cls-1" d="M12.49,49A158.77,158.77,0,0,1,26.21,35.83,143.68,143.68,0,0,1,43.08,23.67,121.93,121.93,0,0,1,75.41,9.77l4.42-1L82,8.24l2.23-.4,4.46-.79c1.5-.22,3-.38,4.5-.58l2.25-.28c.75-.07,1.5-.11,2.25-.17l4.52-.33c3-.07,6-.23,9.06-.11a165.57,165.57,0,0,1,22.94,2.19c3.93.64,7.85,1.39,11.73,2.34,1.94.47,3.87,1,5.8,1.54s3.8,1.24,5.7,1.87a151.21,151.21,0,0,1,17.11,7.32c5.55,2.73,11,5.66,16.5,8.25a118.48,118.48,0,0,0,20.07,7.4c1.72.47,3.45.93,5.2,1.27s3.48.79,5.26,1.06c3.52.62,7.06,1.17,10.61,1.51a71.18,71.18,0,0,0,18.85-.21,27.21,27.21,0,0,0,8.71-3,20.14,20.14,0,0,0,3.65-2.72,24.22,24.22,0,0,0,3-3.5c3.72-5.32,5.2-12.08,5-18.67,0-2-.35-4.52,0-5.49s.68-2.56,1.43-1.68c.47.56.75,2.57.84,4.27A41.22,41.22,0,0,1,271.6,25.9a26.53,26.53,0,0,1-8,11.39,22.26,22.26,0,0,1-6.13,3.45,35.18,35.18,0,0,1-6.7,1.69,62,62,0,0,1-11.29.58,109.23,109.23,0,0,1-11.17-.94A130.14,130.14,0,0,1,208,37.79c-4.45-1.38-8.84-2.94-13.12-4.74s-8.45-3.85-12.54-6l-5.14-2.71a138.32,138.32,0,0,0-15.45-7.25l-4-1.49-4-1.33c-2.7-.88-5.45-1.6-8.2-2.28a154.22,154.22,0,0,0-40.65-4.54A136.33,136.33,0,0,0,82.17,10l-5.56,1.3c-.93.19-1.84.49-2.75.76l-2.73.82-2.74.82-2.67,1-2.67,1c-.89.33-1.79.65-2.65,1.06A126.41,126.41,0,0,0,32.67,32.85,165.06,165.06,0,0,0,18.52,45.24,161.72,161.72,0,0,0,6,59.23c-2.43,3.07-4.23,5-5.24,5.49S.05,64.11,2,61.55A155.86,155.86,0,0,1,12.49,49Z" transform="translate(-0.14)"/><path class="cls-1" d="M276.53,7.73s0,0,0,0Z" transform="translate(-0.14)"/><path class="cls-1" d="M282,15.24c.21-.33.17-.45-.14-.51a.72.72,0,0,1-.25-.12,7.49,7.49,0,0,1-1.4-1.52c-.47-.6-.89-1.25-1.34-1.87-.59-.8-1-1.69-1.63-2.5-.23-.33-.33-.75-.72-1h0c.1-.18,0-.29-.08-.41l-.52-1c-.18-.31-.48-.58-.5-.94a.69.69,0,0,0-.14-.36L275,4.6a2.12,2.12,0,0,1-.38-1c-.54-1.13-1-2.41-1.52-3.62a9.17,9.17,0,0,0-.47.79c-.77,1.36-1.6,2.6-2.35,4l-.26.47-.19.32a6.06,6.06,0,0,0-.36.66c-.27.61-.62,1.16-.91,1.76-.49,1-1,2-1.59,2.92-.47.8-.87,1.64-1.36,2.42a10.08,10.08,0,0,1-.83,1.22c-.12.14,0,.24.14.36l.1.05c1.36.8,2.21.71,2.61-.33a19.07,19.07,0,0,1,1.16-2.13c.23-.41.44-.84.7-1.23a15,15,0,0,1,1.06-1.81,1.81,1.81,0,0,0,.53-.93,1.76,1.76,0,0,1,.38-.76,12.34,12.34,0,0,0,.84-1.4,1.78,1.78,0,0,1,.22-.41.67.67,0,0,0,.1-.19s.08-.19.1-.11a1.32,1.32,0,0,1,.05.39c0,.08,0,.09,0,.1a1.19,1.19,0,0,0,.15.21l.06.07.18.38.35.78a6.51,6.51,0,0,0,.86,1.46,12.15,12.15,0,0,1,.7,1.15c.11.16,0,.38.12.48s.28.56.48.81c.38.51.64,1.1,1,1.64s.73.9,1,1.38A13,13,0,0,0,279.8,17a.33.33,0,0,0,.42,0A5.14,5.14,0,0,0,282,15.24Z" transform="translate(-0.14)"/></g></g></svg>