<svg xmlns="http://www.w3.org/2000/svg" viewBox="0 0 361.4 357.03"><defs><style>.cls-1{isolation:isolate;}.cls-2{mix-blend-mode:multiply;}.cls-3{fill:#be6dae;}</style></defs><g class="cls-1"><g id="Layer_2" data-name="Layer 2"><g id="Content"><g class="cls-2"><path class="cls-3" d="M237.3,3c19.25,0,40.17,6.22,58.89,17.52s34.53,27.19,44.7,44.84c25.74,44.68,18.4,104.73,7.7,147.22-10.72,41.5-26.35,71.49-47.78,91.68a113.38,113.38,0,0,1-65,30.35,174.5,174.5,0,0,1-21,.95h-9.94a318.15,318.15,0,0,0-54,4.12c-8,1.29-16.68,2.94-25.9,4.69-23.9,4.54-51,9.68-73.18,9.68-15.4,0-26.53-2.41-34-7.37C-6.76,330.22,2.41,278.9,22.38,235.34c14.77-32.22,34.33-57.84,57-87.49,7.14-9.35,14.52-19,22.18-29.43,3.69-5.07,7.34-10.19,11.21-15.61,28.43-39.87,60.65-85,101.08-96.56A83.66,83.66,0,0,1,237.29,3h0m0-3A86.6,86.6,0,0,0,213,3.37C166.15,16.71,130.86,73.06,99.13,116.65c-32,43.59-59.91,74.73-79.48,117.44s-30.54,97-3.56,115.06c8.68,5.76,21.23,7.88,35.68,7.88,31,0,70.64-9.75,99.55-14.4a316.1,316.1,0,0,1,53.52-4.09l9.94,0a174.48,174.48,0,0,0,21.36-1,116,116,0,0,0,66.72-31.13c20.47-19.28,37.07-48.34,48.64-93.12,11.27-44.78,17.79-104.69-8-149.47C322,26.59,278.35,0,237.29,0Z"/></g></g></g></g></svg>