<svg xmlns="http://www.w3.org/2000/svg" viewBox="0 0 426.8 431.25"><defs><style>.cls-1{isolation:isolate;}.cls-2{mix-blend-mode:multiply;}.cls-3{fill:#38c3d5;}</style></defs><g class="cls-1"><g id="Layer_2" data-name="Layer 2"><g id="Content"><g class="cls-2"><path class="cls-3" d="M250,3c27.25,0,58.49,1,84.34,12.84,28.19,12.92,53.65,40,71.72,76.37,9.33,18.37,15,35.46,17,50.78,2.24,17.71-.7,32.62-8.74,44.33-10.19,15-29.73,26.46-48.63,37.58-14.33,8.44-29.15,17.17-40.19,27.51-8.9,8.34-17.3,16.21-34.77,58C286.1,321.57,281.29,333.06,275,345c-10.12,19.13-23.3,37.3-37.09,51.19-16.37,16.47-33,26.69-49.38,30.36A70.61,70.61,0,0,1,173,428.25c-27.06,0-58.93-14.5-94.72-43.11C38.4,353.27,14.23,320.58,6.41,288c-4.36-17.44-4.52-37-.48-56.59a152.79,152.79,0,0,1,21.13-51.72c10.39-16.12,23.58-29.38,36.33-42.21,12-12.05,23.3-23.43,32.33-36.87,7.86-11.58,13.76-24.32,19.46-36.65,8.06-17.41,15.67-33.85,27.53-43.81,19.18-16.46,51.09-16.71,84.88-17l3.62,0,6.07,0c4.18,0,8.49,0,12.76,0h0m0-3c-6.3,0-12.6.06-18.83.09-35.91.31-69.73,0-90.44,17.74C119.92,35.32,112.19,71,93.24,98.88c-18.68,27.8-48.58,47.9-68.7,79.14-20,30.82-30.46,72.91-21,110.65,9,37.6,37.92,70.85,72.9,98.81,29.93,23.93,64.2,43.77,96.59,43.77a73.22,73.22,0,0,0,16.17-1.76c36.61-8.19,69.5-47.24,88.46-83.07s24.55-68,49.94-91.82S398.42,216,416.8,189c18.24-26.56,9.1-64.43-8-98.16-17-34.14-41.95-63.44-73.15-77.74C309.88,1.31,279.79,0,250,0Z"/></g></g></g></g></svg>