<svg id="Layer_1" data-name="Layer 1" xmlns="http://www.w3.org/2000/svg" viewBox="0 0 40 40"><defs><style>.cls-1{fill:var(--link-color);}</style></defs><g id="Logo_FIXED" data-name="Logo — FIXED"><path class="cls-1" d="M13.84,33.47c12.51,0,19.35-10.37,19.35-19.34,0-.3,0-.59,0-.88a13.76,13.76,0,0,0,3.4-3.53,13.81,13.81,0,0,1-3.91,1.08,6.85,6.85,0,0,0,3-3.77,13.68,13.68,0,0,1-4.32,1.65,6.8,6.8,0,0,0-11.76,4.65,7.91,7.91,0,0,0,.17,1.55,19.33,19.33,0,0,1-14-7.11,6.85,6.85,0,0,0,2.11,9.09A6.9,6.9,0,0,1,4.76,16v.09a6.8,6.8,0,0,0,5.45,6.67A6.61,6.61,0,0,1,8.42,23a6.7,6.7,0,0,1-1.28-.12,6.81,6.81,0,0,0,6.36,4.72,13.67,13.67,0,0,1-8.45,2.92,14.39,14.39,0,0,1-1.62-.09,19.35,19.35,0,0,0,10.41,3"/></g></svg>