<svg id="Layer_1" data-name="Layer 1" xmlns="http://www.w3.org/2000/svg" viewBox="0 0 40 40"><defs><style>.cls-1{fill:#fff;}</style></defs><path class="cls-1" d="M20,7.91c3.94,0,4.41,0,6,.08a8.31,8.31,0,0,1,2.74.51,4.83,4.83,0,0,1,2.8,2.8A8.31,8.31,0,0,1,32,14c.07,1.55.08,2,.08,6s0,4.41-.08,6a8.31,8.31,0,0,1-.51,2.74,4.83,4.83,0,0,1-2.8,2.8A8.31,8.31,0,0,1,26,32c-1.55.07-2,.08-6,.08s-4.41,0-6-.08a8.31,8.31,0,0,1-2.74-.51,4.83,4.83,0,0,1-2.8-2.8A8.31,8.31,0,0,1,8,26c-.07-1.55-.08-2-.08-6s0-4.41.08-6A8.31,8.31,0,0,1,8.5,11.3a4.83,4.83,0,0,1,2.8-2.8A8.31,8.31,0,0,1,14,8c1.55-.07,2-.08,6-.08m0-2.66c-4,0-4.51,0-6.08.09A10.93,10.93,0,0,0,10.34,6,7.5,7.5,0,0,0,6,10.34a10.93,10.93,0,0,0-.68,3.58C5.26,15.49,5.25,16,5.25,20s0,4.51.09,6.08A10.93,10.93,0,0,0,6,29.66,7.5,7.5,0,0,0,10.34,34a10.93,10.93,0,0,0,3.58.68c1.57.08,2.07.09,6.08.09s4.51,0,6.08-.09A10.93,10.93,0,0,0,29.66,34,7.5,7.5,0,0,0,34,29.66a10.93,10.93,0,0,0,.68-3.58c.08-1.57.09-2.07.09-6.08s0-4.51-.09-6.08A10.93,10.93,0,0,0,34,10.34,7.5,7.5,0,0,0,29.66,6a10.93,10.93,0,0,0-3.58-.68C24.51,5.26,24,5.25,20,5.25Z"/><path class="cls-1" d="M12.42,20A7.58,7.58,0,1,0,20,12.42,7.59,7.59,0,0,0,12.42,20Zm2.66,0A4.92,4.92,0,1,1,20,24.92,4.92,4.92,0,0,1,15.08,20Z"/><circle class="cls-1" cx="12.13" cy="12.13" r="1.77"/></svg>