<svg xmlns="http://www.w3.org/2000/svg" viewBox="0 0 150 150"><defs><style>.cls-1{fill:#bfbebd;}.cls-2{fill:none;stroke:#bfbebd;stroke-linecap:round;stroke-linejoin:round;stroke-width:2.57px;}</style></defs><g id="Layer_1" data-name="Layer 1"><circle class="cls-1" cx="21.87" cy="38.39" r="2.08"/><circle class="cls-1" cx="30.6" cy="38.39" r="2.08"/><circle class="cls-1" cx="39.33" cy="38.39" r="2.08"/><polyline class="cls-2" points="28.14 86.09 21.45 94.55 28.14 101.86"/><polyline class="cls-2" points="38.05 101.86 44.75 93.4 38.05 86.09"/><polyline class="cls-2" points="60.97 86.09 54.27 94.55 60.97 101.86"/><polyline class="cls-2" points="79.18 101.86 85.87 93.4 79.18 86.09"/><line class="cls-2" x1="72.88" y1="83.26" x2="67.02" y2="104.01"/><rect class="cls-2" x="21.11" y="53.04" width="19.54" height="19.54"/><line class="cls-2" x1="13.99" y1="45.47" x2="135.02" y2="45.47"/><line class="cls-2" x1="50.84" y1="53.04" x2="86.3" y2="53.04"/><line class="cls-2" x1="50.84" y1="59.31" x2="86.3" y2="59.31"/><line class="cls-2" x1="50.84" y1="65.58" x2="86.3" y2="65.58"/><line class="cls-2" x1="50.84" y1="71.85" x2="86.3" y2="71.85"/><path class="cls-2" d="M12.62,32.87v77.78H95.39V71.43a4.17,4.17,0,0,1,4.17-4.17h22.51a4.17,4.17,0,0,1,4.16,4.17v39.22h9.91V32.87Z"/><rect class="cls-2" x="95.39" y="67.26" width="30.84" height="51.86" rx="4.17"/><rect class="cls-2" x="100.34" y="72.57" width="21.07" height="41.95" rx="1.78"/></g></svg>