<svg xmlns="http://www.w3.org/2000/svg" viewBox="0 0 150 150"><defs><style>.cls-1,.cls-3,.cls-4,.cls-5,.cls-6,.cls-7{fill:none;stroke:#bfbebd;stroke-linecap:round;stroke-linejoin:round;stroke-width:2.24px;}.cls-2{fill:#bfbebd;}.cls-3{stroke-dasharray:4.02 4.02;}.cls-4{stroke-dasharray:5.79 5.79;}.cls-5{stroke-dasharray:5.79 5.79;}.cls-6{stroke-dasharray:6.04 6.04;}.cls-7{stroke-dasharray:5.48 5.48;}</style></defs><g id="Layer_1" data-name="Layer 1"><path class="cls-1" d="M108.71,129H33.48a2.91,2.91,0,0,1-2.91-2.91V27.27a2.92,2.92,0,0,1,2.91-2.91h64c1.61,0,14.12,12.81,14.12,14.41v24L101,78.21l8,5.55,2.6-2.78v45.08A2.91,2.91,0,0,1,108.71,129Z"/><polyline class="cls-1" points="97.5 25.29 97.5 38.77 111.02 38.77"/><path class="cls-2" d="M41.48,112.57a16.43,16.43,0,0,1,1.09-4.93A9.85,9.85,0,0,1,44,105.12a6.64,6.64,0,0,1,2.62-1.94,7.26,7.26,0,0,1,5.36.17,12,12,0,0,1,4.06,2.74A55.12,55.12,0,0,0,62.33,112c1.24.86,2.79,1.43,3.94,1s1.84-1.52,2.46-3.13c.48-1.24.85-2.68,1.3-4.2a16.07,16.07,0,0,1,2.17-4.77,6.1,6.1,0,0,1,3-2.37,4.85,4.85,0,0,1,4.21.56,9.69,9.69,0,0,1,2.37,2.31c.6.77,1.11,1.52,1.61,2.22a16.64,16.64,0,0,0,1.32,1.63,3.91,3.91,0,0,0,1.26.91,3.06,3.06,0,0,0,2.88-.88,8.77,8.77,0,0,0,2.58-3.65c.17-.45.34-1.08,1.06-1a4.21,4.21,0,0,1,2.38.79c.42.37.2.81,0,1.19a21.53,21.53,0,0,1-2.31,3.74A9.9,9.9,0,0,1,89.4,109a6.79,6.79,0,0,1-2.19.64,5.38,5.38,0,0,1-2.41-.34A7.6,7.6,0,0,1,82,107.19a24.42,24.42,0,0,1-1.77-2.34,10.93,10.93,0,0,0-2.89-3.31,1.68,1.68,0,0,0-1-.15,2.16,2.16,0,0,0-1,.58,9.7,9.7,0,0,0-1.62,2.43l-.59,1.21a21.76,21.76,0,0,0-1.38,4,11.74,11.74,0,0,1-1.86,4.2,5.58,5.58,0,0,1-2.49,1.78,6,6,0,0,1-3,.22,10.25,10.25,0,0,1-5-2.58c-1.51-1.32-2.75-2.81-4-4.16a12.65,12.65,0,0,0-4.2-3.22,5.43,5.43,0,0,0-3.24-.44,3.85,3.85,0,0,0-2.4,1.94c-1.33,2.37-1.65,5.31-1.71,8.35a1.76,1.76,0,0,1-1.28,1.84c-.87.23-1.34,0-1.34-.83A37.49,37.49,0,0,1,41.48,112.57Z"/><rect class="cls-1" x="113.4" y="38.37" width="9.77" height="46.76" transform="translate(180.51 179.79) rotate(-145.36)"/><rect class="cls-1" x="128.66" y="36.21" width="9.77" height="6.92" transform="translate(220.87 148.21) rotate(-145.36)"/><polygon class="cls-1" points="109.02 83.76 95.89 94.17 100.98 78.21 109.02 83.76"/><polyline class="cls-2" points="97.66 85.65 103.23 89.5 95.89 94.17"/><line class="cls-1" x1="105" y1="80.98" x2="131.58" y2="42.51"/><path class="cls-1" d="M70.06,62a12.64,12.64,0,0,1,3.28-.74V57.93"/><line class="cls-3" x1="73.34" y1="53.91" x2="73.34" y2="47.89"/><polyline class="cls-1" points="73.34 45.88 73.34 42.51 69.97 42.51"/><line class="cls-4" x1="64.18" y1="42.51" x2="43.9" y2="42.51"/><polyline class="cls-1" points="41.01 42.51 37.64 42.51 37.64 45.88"/><line class="cls-5" x1="37.64" y1="51.67" x2="37.64" y2="71.95"/><polyline class="cls-1" points="37.64 74.84 37.64 78.21 41.01 78.21"/><line class="cls-6" x1="47.05" y1="78.21" x2="56.11" y2="78.21"/><path class="cls-1" d="M59.13,78.21h3.36a12.77,12.77,0,0,1-.71-3.29"/><path class="cls-7" d="M62.53,69.53a12.76,12.76,0,0,1,5.08-6.29"/><circle class="cls-1" cx="74.46" cy="73.95" r="12.71"/></g></svg>